<?xml version="1.0" standalone="no"?>
<!DOCTYPE svg PUBLIC "-//W3C//DTD SVG 20010904//EN"
 "http://www.w3.org/TR/2001/REC-SVG-20010904/DTD/svg10.dtd">
<svg version="1.0" xmlns="http://www.w3.org/2000/svg"
 width="759.000000pt" height="759.000000pt" viewBox="0 0 759.000000 759.000000"
 preserveAspectRatio="xMidYMid meet">
<metadata>
Created by potrace 1.14, written by Peter Selinger 2001-2017
</metadata>
<g transform="translate(0.000000,759.000000) scale(0.100000,-0.100000)"
fill="#000000" stroke="none">
<path d="M3379 5096 c-2 -2 -40 -6 -84 -10 -235 -19 -506 -87 -772 -194 -141
-57 -374 -189 -522 -294 -47 -34 -88 -65 -91 -68 -3 -3 -34 -30 -70 -60 -187
-156 -369 -361 -512 -575 -45 -68 -138 -228 -138 -239 0 -6 -9 -22 -19 -35
l-18 -24 -27 45 c-45 77 -44 99 4 194 38 74 42 87 32 109 -44 96 -167 -33
-179 -187 -6 -76 20 -162 74 -246 l35 -55 -56 -166 c-66 -197 -98 -336 -122
-526 -3 -22 -7 -51 -9 -64 -2 -12 -7 -76 -11 -140 -5 -96 -4 -119 7 -122 8 -3
1209 -5 2669 -4 l2655 0 -2 115 c-3 136 -33 355 -70 501 -15 59 -27 137 -28
181 -1 67 -5 82 -29 112 -15 20 -31 36 -36 36 -5 0 -14 17 -21 38 -7 20 -38
93 -71 161 l-58 124 21 36 c36 60 39 87 22 169 -19 93 -9 134 44 185 29 29 42
35 63 30 15 -3 30 -1 33 4 13 21 110 3 189 -33 73 -35 80 -36 118 -25 28 8 44
20 50 37 6 14 14 22 20 19 19 -12 9 10 -18 41 -15 17 -42 40 -59 53 -18 12
-33 25 -33 29 0 4 42 5 94 4 55 -2 102 1 114 7 19 10 49 79 47 111 0 9 -42 35
-102 65 -110 54 -130 70 -161 132 -19 36 -43 57 -125 107 -49 30 -168 47 -280
40 -56 -4 -130 -6 -165 -5 -35 1 -69 -2 -75 -7 -7 -5 -28 -12 -49 -16 -40 -7
-44 -14 -54 -85 l-6 -48 36 -7 c19 -4 37 -10 40 -15 3 -4 -18 -33 -47 -64 -29
-31 -74 -81 -101 -112 -27 -31 -52 -54 -56 -53 -5 2 -48 40 -97 85 -439 405
-983 647 -1577 703 -104 9 -408 14 -417 6z"/>
</g>
</svg>
